<svg width="25" height="24" viewBox="0 0 25 24" fill="none" xmlns="http://www.w3.org/2000/svg">
<circle cx="12.0967" cy="12" r="12" fill="url(#paint0_linear_2136_9250)"/>
<g clip-path="url(#clip0_2136_9250)">
<ellipse cx="13.0755" cy="13.9566" rx="2.44565" ry="3.42391" fill="url(#paint1_linear_2136_9250)"/>
<path d="M16.9755 12.2281C15.9516 9.56727 12.306 9.42379 13.1864 5.5564C13.2516 5.26944 12.9451 5.04771 12.6973 5.19771C10.3299 6.59336 8.62771 9.39118 10.056 13.0564C10.1734 13.3564 9.82119 13.6368 9.56684 13.4412C8.3864 12.5477 8.26249 11.2629 8.36684 10.3434C8.40597 10.0042 7.96249 9.84118 7.77336 10.1216C7.32988 10.7999 6.87988 11.8955 6.87988 13.5455C7.12771 17.1977 10.2125 18.3194 11.3212 18.4629C12.906 18.6651 14.6212 18.3716 15.8538 17.2434C17.2103 15.9847 17.706 13.976 16.9755 12.2281ZM10.9234 15.5086C11.8625 15.2803 12.3451 14.6021 12.4755 14.0021C12.6908 13.0694 11.8494 12.1564 12.4168 10.6825C12.6321 11.9021 14.5494 12.6651 14.5494 13.9955C14.6016 15.6455 12.8147 17.0607 10.9234 15.5086Z" fill="white"/>
</g>
<defs>
<linearGradient id="paint0_linear_2136_9250" x1="12.0967" y1="0" x2="12.0967" y2="24" gradientUnits="userSpaceOnUse">
<stop stop-color="#FF5B28"/>
<stop offset="1" stop-color="#F2CB27"/>
</linearGradient>
<linearGradient id="paint1_linear_2136_9250" x1="10.6299" y1="13.9566" x2="15.5212" y2="13.9566" gradientUnits="userSpaceOnUse">
<stop stop-color="#FF5B28"/>
<stop offset="1" stop-color="#F2CB27"/>
</linearGradient>
<clipPath id="clip0_2136_9250">
<rect width="15.6522" height="15.6522" fill="white" transform="translate(4.27148 4.17383)"/>
</clipPath>
</defs>
</svg>
