<svg width="30" height="24" viewBox="0 0 30 24" fill="none" xmlns="http://www.w3.org/2000/svg">
<rect x="3.73828" y="0.240234" width="23.52" height="23.52" rx="6" fill="url(#paint0_linear_2136_9114)"/>
<mask id="mask0_2136_9114" style="mask-type:alpha" maskUnits="userSpaceOnUse" x="5" y="4" width="21" height="14">
<mask id="mask1_2136_9114" style="mask-type:alpha" maskUnits="userSpaceOnUse" x="3" y="4" width="23" height="19">
<rect width="20.496" height="20.16" rx="10.08" transform="matrix(0.994522 0.104528 -0.390731 0.920505 8.57812 3.22266)" fill="#D9D9D9"/>
</mask>
<g mask="url(#mask1_2136_9114)">
<rect width="16.688" height="14.616" transform="matrix(0.994522 0.104528 -0.390731 0.920505 10.877 2.60254)" fill="url(#paint1_linear_2136_9114)"/>
</g>
</mask>
<g mask="url(#mask0_2136_9114)">
<path d="M8.72188 3.15697L21.7472 2.82977L23.4945 5.08657L23.9032 6.17957L26.4333 7.41475L25.2726 8.50435L24.9464 9.54702L14.5763 14.515L3.38293 15.7348L8.72188 3.15697Z" fill="url(#paint2_linear_2136_9114)"/>
</g>
<mask id="mask2_2136_9114" style="mask-type:alpha" maskUnits="userSpaceOnUse" x="6" y="8" width="16" height="13">
<mask id="mask3_2136_9114" style="mask-type:alpha" maskUnits="userSpaceOnUse" x="6" y="7" width="16" height="15">
<rect width="14.3472" height="14.112" rx="7.056" transform="matrix(0.247497 -0.92607 1.03947 -0.0255082 5.24512 21.272)" fill="#D9D9D9"/>
</mask>
<g mask="url(#mask3_2136_9114)">
<rect width="11.6816" height="17.986" transform="matrix(0.247497 -0.92607 1.03947 -0.0255082 4.93262 20.0176)" fill="url(#paint3_linear_2136_9114)"/>
</g>
</mask>
<g mask="url(#mask2_2136_9114)">
<path d="M5.14119 21.2747L6.04936 13.2643L8.01703 11.539L8.93067 10.9757L10.149 9.05241L10.9189 9.46629L11.7261 9.37435L12.8726 10.4931L15.0169 12.8069L22.2364 8.17081L33.9293 13.1846L5.14119 21.2747Z" fill="url(#paint4_linear_2136_9114)"/>
</g>
<path d="M11.8366 10.6189L14.183 14.5588C14.2097 14.6036 14.2805 14.6107 14.341 14.5747L23.4567 9.14783" stroke="#FAF3EB" stroke-width="3.36" stroke-linecap="round"/>
<defs>
<linearGradient id="paint0_linear_2136_9114" x1="27.2583" y1="8.035" x2="2.42132" y2="13.301" gradientUnits="userSpaceOnUse">
<stop stop-color="#F34B48"/>
<stop offset="0.539684" stop-color="#FC7E5D"/>
<stop offset="1" stop-color="#FFDF91"/>
</linearGradient>
<linearGradient id="paint1_linear_2136_9114" x1="14.0283" y1="4.1948" x2="2.24777" y2="6.40987" gradientUnits="userSpaceOnUse">
<stop stop-color="#FAF3EB"/>
<stop offset="1" stop-color="#FAF3EB" stop-opacity="0"/>
</linearGradient>
<linearGradient id="paint2_linear_2136_9114" x1="23.1307" y1="7.23288" x2="9.96847" y2="4.51194" gradientUnits="userSpaceOnUse">
<stop stop-color="#FAF3EB"/>
<stop offset="1" stop-color="#FAF3EB" stop-opacity="0"/>
</linearGradient>
<linearGradient id="paint3_linear_2136_9114" x1="9.81984" y1="5.162" x2="1.37846" y2="6.06487" gradientUnits="userSpaceOnUse">
<stop stop-color="#FAF3EB"/>
<stop offset="1" stop-color="#FAF3EB" stop-opacity="0"/>
</linearGradient>
<linearGradient id="paint4_linear_2136_9114" x1="7.59115" y1="14.532" x2="18.1605" y2="19.4528" gradientUnits="userSpaceOnUse">
<stop stop-color="#FAF3EB"/>
<stop offset="1" stop-color="#FAF3EB" stop-opacity="0"/>
</linearGradient>
</defs>
</svg>
