<svg width="21" height="21" viewBox="0 0 21 21" fill="none" xmlns="http://www.w3.org/2000/svg">
<g clip-path="url(#clip0_2136_10986)">
<path d="M12.1693 2.68555V6.12767C12.1693 6.59438 12.1693 6.82773 12.2601 7.00599C12.34 7.1628 12.4675 7.29028 12.6243 7.37017C12.8025 7.461 13.0359 7.461 13.5026 7.461H16.9447M12.1693 2.46094H7.83594C6.43581 2.46094 5.73574 2.46094 5.20096 2.73343C4.73056 2.97311 4.3481 3.35556 4.10842 3.82597C3.83594 4.36075 3.83594 5.06081 3.83594 6.46094V15.1276C3.83594 16.5278 3.83594 17.2278 4.10842 17.7626C4.3481 18.233 4.73056 18.6155 5.20096 18.8551C5.73574 19.1276 6.43581 19.1276 7.83594 19.1276H13.1693C14.5694 19.1276 15.2695 19.1276 15.8042 18.8551C16.2747 18.6155 16.6571 18.233 16.8968 17.7626C17.1693 17.2278 17.1693 16.5278 17.1693 15.1276V7.46094L12.1693 2.46094Z" stroke="#374151" stroke-width="1.5" stroke-linecap="round" stroke-linejoin="round"/>
<path d="M13 13.2969L10.5 10.7969M10.5 10.7969L8 13.2969M10.5 10.7969V15.7969" stroke="#374151" stroke-width="1.5" stroke-linecap="round" stroke-linejoin="round"/>
</g>
<defs>
<clipPath id="clip0_2136_10986">
<rect width="20" height="20" fill="white" transform="translate(0.5 0.796875)"/>
</clipPath>
</defs>
</svg>
