<svg width="17" height="17" viewBox="0 0 17 17" fill="none" xmlns="http://www.w3.org/2000/svg">
<g clip-path="url(#clip0_2136_12632)">
<ellipse cx="9.47886" cy="10.4571" rx="2.44565" ry="3.42391" fill="#EDEFF1"/>
<path d="M13.3789 8.72912C12.3549 6.06825 8.70929 5.92477 9.58972 2.05738C9.65494 1.77042 9.34842 1.54868 9.10059 1.69868C6.7332 3.09433 5.03103 5.89216 6.45929 9.55738C6.57668 9.85738 6.22451 10.1378 5.97016 9.94216C4.78972 9.04868 4.66581 7.7639 4.77016 6.84433C4.80929 6.5052 4.36581 6.34216 4.17668 6.62259C3.7332 7.30086 3.2832 8.39651 3.2832 10.0465C3.53103 13.6987 6.61581 14.8204 7.72451 14.9639C9.30929 15.1661 11.0245 14.8726 12.2571 13.7443C13.6136 12.4856 14.1093 10.4769 13.3789 8.72912ZM7.32668 12.0096C8.26581 11.7813 8.74842 11.103 8.87886 10.503C9.09407 9.57042 8.25277 8.65738 8.82016 7.18346C9.03538 8.40303 10.9528 9.16607 10.9528 10.4965C11.0049 12.1465 9.21799 13.5617 7.32668 12.0096Z" fill="white"/>
</g>
<defs>
<clipPath id="clip0_2136_12632">
<rect width="15.6522" height="15.6522" fill="white" transform="translate(0.674805 0.673828)"/>
</clipPath>
</defs>
</svg>
