<svg width="21" height="21" viewBox="0 0 21 21" fill="none" xmlns="http://www.w3.org/2000/svg">
<g clip-path="url(#clip0_2136_11043)">
<path d="M7.16614 11.2228L9.70242 12.4909C10.4595 12.8695 11.0842 13.4941 11.4627 14.2512L12.7309 16.7874C12.9201 17.1471 13.4312 17.1471 13.6204 16.7874L14.8886 14.2512C15.2671 13.4941 15.8917 12.8695 16.6488 12.4909L19.223 11.2228C19.5826 11.0335 19.5826 10.5224 19.223 10.3332L16.6678 9.08395C15.9107 8.7054 15.2861 8.08079 14.9075 7.32369L13.6394 4.78742C13.4501 4.42779 12.9391 4.42779 12.7498 4.78742L11.4816 7.32369C11.1031 8.08079 10.4784 8.7054 9.72134 9.08395L7.18507 10.3521C6.80652 10.5224 6.80652 11.0524 7.16614 11.2228ZM1.6204 16.901L2.71819 16.3521C3.03996 16.1818 3.30494 15.9168 3.47529 15.595L4.02418 14.4972C4.09989 14.3458 4.32702 14.3458 4.40273 14.4972L4.95163 15.595C5.12197 15.9168 5.38696 16.1818 5.70872 16.3521L6.80652 16.901C6.95794 16.9767 6.95794 17.2038 6.80652 17.2795L5.70872 17.8284C5.38696 17.9988 5.12197 18.2638 4.95163 18.5855L4.40273 19.6833C4.32702 19.8348 4.09989 19.8348 4.02418 19.6833L3.47529 18.5855C3.30494 18.2638 3.03996 17.9988 2.71819 17.8284L1.6204 17.2795C1.46898 17.1849 1.46898 16.9767 1.6204 16.901ZM1.6204 4.31423L2.71819 3.76533C3.03996 3.59499 3.30494 3.33 3.47529 3.00824L4.02418 1.91044C4.09989 1.75902 4.32702 1.75902 4.40273 1.91044L4.95163 3.00824C5.12197 3.33 5.38696 3.59499 5.70872 3.76533L6.80652 4.31423C6.95794 4.38994 6.95794 4.61707 6.80652 4.69278L5.70872 5.24168C5.38696 5.41202 5.12197 5.67701 4.95163 5.99877L4.40273 7.09656C4.32702 7.24798 4.09989 7.24798 4.02418 7.09656L3.47529 5.99877C3.30494 5.67701 3.03996 5.41202 2.71819 5.24168L1.6204 4.69278C1.46898 4.59814 1.46898 4.38994 1.6204 4.31423Z" fill="url(#paint0_linear_2136_11043)"/>
<path d="M7.16614 11.2228L9.70242 12.4909C10.4595 12.8695 11.0842 13.4941 11.4627 14.2512L12.7309 16.7874C12.9201 17.1471 13.4312 17.1471 13.6204 16.7874L14.8886 14.2512C15.2671 13.4941 15.8917 12.8695 16.6488 12.4909L19.223 11.2228C19.5826 11.0335 19.5826 10.5224 19.223 10.3332L16.6678 9.08395C15.9107 8.7054 15.2861 8.08079 14.9075 7.32369L13.6394 4.78742C13.4501 4.42779 12.9391 4.42779 12.7498 4.78742L11.4816 7.32369C11.1031 8.08079 10.4784 8.7054 9.72134 9.08395L7.18507 10.3521C6.80652 10.5224 6.80652 11.0524 7.16614 11.2228ZM1.6204 16.901L2.71819 16.3521C3.03996 16.1818 3.30494 15.9168 3.47529 15.595L4.02418 14.4972C4.09989 14.3458 4.32702 14.3458 4.40273 14.4972L4.95163 15.595C5.12197 15.9168 5.38696 16.1818 5.70872 16.3521L6.80652 16.901C6.95794 16.9767 6.95794 17.2038 6.80652 17.2795L5.70872 17.8284C5.38696 17.9988 5.12197 18.2638 4.95163 18.5855L4.40273 19.6833C4.32702 19.8348 4.09989 19.8348 4.02418 19.6833L3.47529 18.5855C3.30494 18.2638 3.03996 17.9988 2.71819 17.8284L1.6204 17.2795C1.46898 17.1849 1.46898 16.9767 1.6204 16.901ZM1.6204 4.31423L2.71819 3.76533C3.03996 3.59499 3.30494 3.33 3.47529 3.00824L4.02418 1.91044C4.09989 1.75902 4.32702 1.75902 4.40273 1.91044L4.95163 3.00824C5.12197 3.33 5.38696 3.59499 5.70872 3.76533L6.80652 4.31423C6.95794 4.38994 6.95794 4.61707 6.80652 4.69278L5.70872 5.24168C5.38696 5.41202 5.12197 5.67701 4.95163 5.99877L4.40273 7.09656C4.32702 7.24798 4.09989 7.24798 4.02418 7.09656L3.47529 5.99877C3.30494 5.67701 3.03996 5.41202 2.71819 5.24168L1.6204 4.69278C1.46898 4.59814 1.46898 4.38994 1.6204 4.31423Z" fill="#19A1E5"/>
</g>
<defs>
<linearGradient id="paint0_linear_2136_11043" x1="0.500452" y1="3.29688" x2="22.5005" y2="24.7969" gradientUnits="userSpaceOnUse">
<stop stop-color="#C1D7FC"/>
<stop offset="0.31" stop-color="#60A5FA"/>
<stop offset="0.52" stop-color="#2563EB"/>
<stop offset="1" stop-color="#1E40AF"/>
</linearGradient>
<clipPath id="clip0_2136_11043">
<rect width="20" height="20" fill="white" transform="translate(0.5 0.796875)"/>
</clipPath>
</defs>
</svg>
