<svg width="21" height="21" viewBox="0 0 21 21" fill="none" xmlns="http://www.w3.org/2000/svg">
<path d="M17.1673 11.2139V6.46387C17.1673 5.06374 17.1673 4.36368 16.8948 3.8289C16.6552 3.35849 16.2727 2.97604 15.8023 2.73636C15.2675 2.46387 14.5675 2.46387 13.1673 2.46387H7.83398C6.43384 2.46387 5.73378 2.46387 5.199 2.73636C4.72859 2.97604 4.34614 3.35849 4.10646 3.8289C3.83398 4.36368 3.83398 5.06374 3.83398 6.46387V15.1305C3.83398 16.5307 3.83398 17.2307 4.10646 17.7655C4.34614 18.2359 4.72859 18.6184 5.199 18.858C5.73378 19.1305 6.43384 19.1305 7.83398 19.1305H10.5007M12.1673 9.96387H7.16731M8.83398 13.2972H7.16731M13.834 6.63054H7.16731M12.584 16.6305L14.2507 18.2972L18.0007 14.5472" stroke="#374151" stroke-width="1.5" stroke-linecap="round" stroke-linejoin="round"/>
</svg>
